<?xml version="1.0" standalone="no"?>
<!DOCTYPE svg PUBLIC "-//W3C//DTD SVG 20010904//EN"
 "http://www.w3.org/TR/2001/REC-SVG-20010904/DTD/svg10.dtd">
<svg version="1.0" xmlns="http://www.w3.org/2000/svg"
 width="1409.000000pt" height="1409.000000pt" viewBox="0 0 1409.000000 1409.000000"
 preserveAspectRatio="xMidYMid meet">
<metadata>
Created by potrace 1.11, written by Peter Selinger 2001-2013
</metadata>
<g transform="translate(0.000000,1409.000000) scale(0.100000,-0.100000)"
fill="#000000" stroke="none">
<path d="M6512 13379 c-13 -5 -28 -6 -33 -3 -12 7 -351 -26 -364 -36 -5 -5
-44 -11 -85 -15 -41 -4 -82 -9 -90 -12 -18 -7 -17 -7 -107 -17 -40 -5 -73 -12
-73 -16 0 -4 -55 -17 -122 -30 -68 -12 -125 -26 -128 -29 -5 -7 -79 -27 -125
-35 -49 -8 -91 -19 -100 -26 -6 -5 -41 -16 -78 -25 -36 -10 -65 -21 -62 -25 3
-5 -4 -6 -15 -3 -12 3 -20 0 -20 -8 0 -7 -3 -10 -6 -6 -4 3 -23 -1 -43 -10
-20 -8 -47 -17 -60 -18 -41 -6 -111 -29 -111 -37 0 -4 -7 -8 -15 -8 -28 0
-150 -44 -158 -57 -4 -7 -17 -13 -27 -13 -25 0 -100 -30 -100 -40 0 -4 -16
-11 -36 -14 -19 -4 -44 -16 -54 -26 -13 -13 -20 -15 -24 -7 -3 8 -9 7 -18 -5
-8 -9 -38 -24 -68 -34 -29 -10 -62 -26 -72 -36 -10 -10 -20 -18 -23 -18 -3 0
-11 0 -19 0 -8 0 -21 -6 -28 -12 -7 -7 -24 -14 -37 -16 -13 -1 -32 -11 -41
-22 -10 -11 -23 -20 -29 -20 -11 0 -50 -19 -61 -30 -3 -3 -27 -16 -55 -29 -27
-14 -52 -28 -55 -31 -3 -4 -25 -18 -50 -30 -25 -12 -47 -26 -50 -29 -3 -3 -27
-17 -55 -31 -27 -14 -52 -27 -55 -30 -3 -4 -23 -17 -45 -30 -22 -13 -42 -27
-45 -30 -3 -3 -24 -16 -48 -28 -24 -12 -55 -33 -70 -47 -15 -14 -33 -25 -39
-25 -7 0 -21 -9 -30 -20 -10 -11 -23 -20 -30 -20 -6 0 -19 -10 -28 -22 -8 -13
-18 -22 -20 -20 -13 6 -25 1 -25 -12 0 -8 -11 -17 -25 -20 -14 -4 -24 -12 -22
-19 1 -6 -6 -11 -15 -9 -10 2 -18 -2 -18 -8 0 -6 -10 -14 -23 -19 -21 -8 -54
-33 -147 -112 -19 -16 -38 -29 -43 -29 -5 0 -23 -14 -40 -30 -52 -50 -71 -66
-99 -85 -16 -9 -28 -23 -28 -30 0 -7 -9 -15 -21 -18 -13 -4 -18 -10 -13 -18 4
-8 3 -10 -5 -5 -14 9 -121 -85 -121 -106 0 -4 -9 -8 -21 -8 -14 0 -19 -5 -16
-14 4 -9 -1 -16 -11 -18 -11 -2 378 -352 1086 -975 l1103 -973 92 69 c549 408
1202 644 1873 677 l135 7 -5 121 c-3 67 -8 558 -12 1091 -4 534 -8 984 -9
1000 0 17 -2 177 -3 358 l-2 327 -217 -1 c-120 0 -229 -5 -241 -10z m-787
-320 c148 -34 281 -140 345 -273 54 -115 71 -190 77 -347 4 -105 1 -159 -12
-230 -22 -124 -58 -278 -85 -364 -12 -38 -25 -83 -30 -100 -4 -16 -24 -82 -43
-145 -54 -178 -100 -351 -127 -475 -33 -148 -40 -191 -52 -285 -7 -58 -13
-185 -13 -283 l1 -179 -21 29 c-78 109 -220 254 -350 360 -84 68 -526 364
-737 493 -319 196 -480 315 -570 422 -86 103 -145 221 -163 329 -4 24 -9 53
-11 64 -6 30 13 156 32 211 53 157 207 291 389 339 73 19 210 18 280 -2 119
-35 192 -81 318 -202 l77 -74 2 89 c0 49 2 94 3 99 1 6 5 34 9 63 16 104 77
224 155 302 144 145 335 203 526 159z"/>
<path d="M7105 12813 c2 -318 7 -841 10 -1163 4 -322 7 -712 8 -867 1 -155 5
-285 9 -288 4 -4 33 -8 65 -10 137 -8 240 -16 268 -21 16 -4 43 -8 60 -9 16
-2 46 -5 65 -9 19 -3 53 -8 74 -11 53 -7 89 -16 101 -25 6 -4 17 -7 25 -7 8
-1 35 -6 60 -12 25 -7 56 -14 70 -16 14 -1 27 -4 30 -5 3 -1 9 -2 13 -1 5 1
23 -5 40 -13 44 -20 125 -46 143 -46 8 0 29 -8 47 -17 18 -9 41 -18 52 -20 10
-2 30 -11 43 -19 14 -9 21 -11 17 -4 -9 14 36 -9 47 -25 4 -5 8 -7 8 -3 0 9
122 -41 142 -59 9 -8 22 -12 27 -8 6 3 14 -1 17 -9 3 -9 10 -14 14 -11 5 3 24
-4 42 -15 18 -10 48 -26 66 -34 17 -8 32 -19 32 -23 0 -5 10 -10 22 -10 13 -1
24 -7 26 -13 2 -5 9 -10 14 -10 12 0 109 -59 118 -71 3 -4 24 -17 48 -29 23
-12 42 -26 42 -31 0 -5 6 -9 14 -9 8 0 17 -7 20 -16 3 -8 10 -13 14 -10 5 3
23 -8 41 -24 17 -16 34 -29 36 -29 6 -1 15 -7 83 -66 29 -25 57 -45 63 -45 6
0 7 -5 3 -12 -4 -7 -3 -8 4 -4 6 4 21 -3 33 -15 l21 -21 30 36 c17 21 35 33
41 29 7 -3 9 -3 5 2 -9 9 16 35 33 35 7 0 9 3 6 7 -9 9 13 34 24 27 5 -3 9 -1
9 4 0 13 106 122 119 122 6 0 10 4 8 9 -2 11 71 81 85 81 5 0 7 4 4 9 -3 5 15
25 41 45 25 20 42 36 37 36 -8 0 17 25 112 111 16 15 63 63 104 108 41 44 81
81 87 81 7 0 12 4 10 8 -2 7 122 133 148 150 6 4 23 23 39 42 16 19 32 34 35
33 3 0 12 5 19 13 7 8 11 14 8 14 -3 0 5 10 17 23 12 13 24 23 27 22 3 -1 15
9 27 22 12 13 20 23 17 23 -2 0 26 29 63 65 37 36 69 65 70 65 1 0 168 167
371 370 203 204 372 367 375 363 4 -3 7 1 7 10 0 8 9 18 19 22 10 3 21 15 24
26 4 13 10 18 18 13 8 -4 10 -3 5 5 -4 6 0 14 8 17 9 3 16 14 16 23 0 17 -33
51 -50 51 -6 0 -10 4 -10 9 0 5 -9 12 -19 16 -12 4 -18 12 -14 21 3 7 0 14 -7
14 -7 0 -28 16 -47 35 -19 19 -48 43 -64 52 -16 10 -29 21 -29 25 0 4 -7 5
-15 2 -11 -4 -13 -2 -9 9 3 9 -2 17 -13 21 -10 3 -33 19 -51 36 -18 16 -37 30
-43 30 -5 0 -9 7 -9 16 0 11 -6 15 -20 11 -10 -3 -18 -2 -17 2 3 10 -59 66
-98 86 -19 11 -35 23 -35 27 0 5 -7 8 -16 8 -8 0 -12 5 -9 10 3 6 0 10 -7 10
-7 0 -21 9 -33 20 -11 11 -58 45 -105 75 -47 30 -91 59 -98 65 -7 6 -17 8 -24
4 -6 -4 -8 -3 -4 4 3 6 -2 13 -12 16 -10 4 -27 14 -38 24 -30 26 -64 43 -73
37 -5 -3 -12 2 -15 11 -3 8 -10 12 -16 9 -5 -3 -10 1 -10 9 0 9 -8 16 -19 16
-10 0 -21 7 -25 15 -3 8 -12 15 -20 15 -8 0 -21 6 -28 13 -7 6 -35 23 -63 37
-27 14 -57 33 -67 43 -10 9 -29 17 -43 17 -14 0 -25 4 -25 9 0 6 -29 24 -65
41 -36 17 -65 36 -65 42 0 6 -9 8 -20 5 -11 -3 -20 -1 -20 3 0 9 -91 46 -103
42 -5 -1 -6 2 -3 7 8 12 -30 25 -45 15 -7 -4 -9 -3 -6 3 6 10 -27 27 -45 24
-5 -1 -8 5 -8 12 0 8 -22 19 -51 27 -27 8 -52 18 -55 22 -3 4 -12 8 -20 8 -9
0 -23 7 -31 16 -9 9 -26 14 -40 11 -12 -2 -23 -1 -23 4 0 4 -17 13 -37 20 -21
6 -40 15 -43 19 -3 3 -36 17 -75 31 -38 13 -72 27 -75 30 -5 7 -108 38 -146
44 -11 1 -43 13 -72 25 -28 12 -59 20 -67 16 -9 -3 -14 -2 -11 3 5 7 -100 37
-116 33 -5 -1 -8 3 -8 9 0 6 -9 9 -20 6 -11 -3 -20 -1 -20 5 0 6 -9 8 -20 5
-11 -3 -22 -1 -25 3 -3 4 -29 13 -57 20 -29 6 -63 16 -75 22 -12 6 -31 8 -42
5 -11 -3 -21 -1 -23 3 -2 4 -43 16 -93 26 -49 10 -92 22 -95 26 -3 4 -26 10
-50 13 -25 3 -83 11 -130 18 -60 10 -87 10 -92 3 -5 -7 -8 -7 -8 2 0 6 -12 12
-28 12 -15 0 -32 4 -37 9 -21 20 -424 51 -666 51 l-239 0 5 -577z m2124 91
c198 -50 347 -165 427 -331 88 -182 80 -393 -21 -554 -30 -47 -154 -175 -195
-201 -24 -15 -19 -16 72 -11 113 7 160 -3 273 -56 140 -66 235 -174 283 -320
20 -61 25 -97 25 -181 0 -92 -4 -116 -31 -193 -17 -49 -47 -117 -66 -152 -66
-117 -225 -239 -360 -275 -53 -14 -203 -19 -251 -8 -16 4 -43 10 -60 13 -113
21 -279 136 -371 256 -81 105 -144 262 -168 419 l-12 74 -26 -84 c-56 -183
-63 -226 -62 -390 0 -147 2 -160 31 -245 17 -49 49 -121 70 -160 53 -97 179
-221 326 -319 99 -67 117 -84 117 -105 0 -50 -11 -53 -81 -25 -155 61 -1283
499 -1369 531 -52 20 -100 40 -106 45 -7 5 -20 10 -30 12 -11 3 -32 10 -49 17
-16 7 -32 13 -35 14 -11 4 -46 17 -68 26 l-23 9 23 30 c26 35 19 35 151 14
159 -25 343 -23 445 6 188 51 356 174 470 342 37 53 165 298 160 304 -2 2 -22
-13 -43 -32 -156 -140 -360 -219 -560 -217 -429 4 -715 365 -609 769 78 299
364 503 639 455 158 -28 271 -95 365 -216 22 -28 23 -29 16 -5 -14 46 -18 244
-7 305 30 162 158 322 316 395 48 23 108 43 133 46 26 3 49 7 51 10 11 10 151
2 210 -12z"/>
<path d="M10438 10597 l-1038 -1032 123 -125 c419 -429 711 -952 862 -1545
l44 -170 1476 -3 1476 -2 -6 82 c-3 46 -8 97 -10 113 -14 121 -19 145 -29 145
-8 0 -8 2 1 8 6 4 9 19 6 34 -3 15 -9 26 -13 23 -4 -2 -7 8 -8 24 -1 49 -44
286 -53 291 -4 3 -11 28 -14 55 -4 28 -10 54 -13 59 -3 5 -6 25 -8 45 -5 54
-15 91 -23 91 -7 0 -29 84 -36 135 -3 22 -18 71 -25 80 -4 6 -16 38 -25 73
-10 34 -22 62 -27 62 -5 0 -6 5 -3 10 3 6 2 10 -4 10 -6 0 -8 12 -4 30 3 17 1
30 -4 30 -5 0 -18 33 -28 73 -10 39 -24 77 -30 83 -6 7 -17 37 -25 69 -8 31
-20 59 -27 62 -7 3 -10 9 -7 14 3 6 1 15 -4 22 -9 11 -34 72 -49 121 -4 11
-13 28 -22 38 -9 10 -16 22 -16 26 0 17 -28 72 -37 72 -5 0 -7 4 -3 9 3 5 -2
16 -10 25 -8 8 -14 19 -13 23 4 14 -23 83 -33 83 -5 0 -9 7 -9 16 0 9 -14 36
-30 61 -17 25 -34 58 -37 74 -3 15 -13 36 -24 47 -10 11 -15 23 -11 27 4 3 -1
11 -11 16 -9 6 -17 16 -17 24 0 17 -30 73 -52 97 -10 10 -18 24 -18 31 0 8
-11 24 -24 36 -14 13 -22 29 -19 37 3 8 1 14 -5 14 -5 0 -12 10 -16 23 -3 13
-17 36 -31 51 -14 15 -25 32 -25 38 0 6 -16 32 -35 58 -19 26 -35 53 -35 58 0
6 -9 16 -20 22 -11 6 -20 18 -20 26 0 9 -5 12 -12 8 -7 -4 -8 -3 -4 4 4 6 -21
47 -54 90 -33 43 -60 83 -60 88 0 16 -47 64 -55 56 -5 -4 -5 -1 -1 6 4 6 0 19
-8 28 -9 8 -16 22 -16 31 0 9 -6 13 -14 10 -9 -4 -20 8 -31 34 -10 21 -26 41
-36 44 -11 4 -19 15 -19 25 0 10 -13 28 -30 40 -16 12 -30 28 -30 35 0 8 -11
22 -25 31 -14 9 -25 22 -25 28 0 18 -45 58 -55 49 -4 -5 -5 -3 -2 3 4 6 -5 21
-18 34 -13 13 -23 26 -20 30 2 3 -9 14 -26 24 -16 9 -29 23 -29 30 0 7 -11 22
-25 32 -14 10 -25 22 -25 27 0 15 -220 227 -236 227 -8 0 -12 5 -9 10 3 6 5
10 3 9 -2 0 -470 -464 -1040 -1032z m695 -472 c56 -14 134 -32 172 -40 39 -8
135 -28 215 -45 80 -17 183 -37 230 -44 47 -8 141 -23 210 -35 155 -25 331
-48 430 -57 41 -4 77 -8 80 -9 3 -2 48 -7 100 -10 52 -4 96 -8 97 -10 2 -1
-29 -55 -68 -121 -239 -398 -503 -922 -673 -1336 -8 -21 -19 -38 -23 -38 -5 0
-53 11 -108 25 -55 14 -130 32 -167 40 -38 8 -101 22 -140 31 -40 9 -86 18
-103 20 -16 2 -70 13 -120 23 -191 42 -619 103 -857 122 -82 7 -148 16 -148
20 0 4 36 67 81 140 215 355 427 774 614 1212 32 75 63 137 67 137 5 0 55 -11
111 -25z"/>
<path d="M2594 11575 c3 -8 1 -15 -5 -15 -6 0 -22 -9 -36 -20 -14 -11 -23 -20
-20 -20 4 0 -13 -18 -36 -41 -23 -22 -35 -37 -27 -33 13 7 13 5 1 -9 -7 -9
-20 -17 -27 -17 -8 0 -14 -4 -14 -10 0 -5 -5 -10 -10 -10 -6 0 -23 -14 -38
-32 -15 -17 -40 -46 -57 -63 -16 -18 -41 -48 -54 -66 -14 -19 -33 -40 -43 -47
-10 -7 -18 -20 -18 -27 0 -8 -9 -20 -19 -27 -10 -6 -17 -18 -14 -25 4 -9 0
-11 -11 -7 -11 4 -19 -2 -25 -19 -5 -14 -13 -26 -18 -28 -12 -6 -53 -66 -53
-78 0 -6 -7 -8 -17 -4 -13 5 -15 2 -10 -16 4 -15 0 -24 -11 -28 -19 -7 -48
-44 -44 -55 1 -5 -4 -8 -12 -8 -8 0 -18 -9 -21 -20 -3 -11 -11 -20 -17 -20 -5
0 -8 -7 -4 -15 3 -9 0 -15 -10 -15 -8 0 -19 -11 -24 -24 -5 -13 -14 -27 -20
-31 -12 -8 -34 -55 -31 -68 1 -5 -3 -6 -8 -3 -5 3 -15 -2 -22 -11 -12 -14 -12
-16 1 -8 8 4 3 -3 -12 -18 -16 -14 -28 -33 -28 -41 0 -9 -11 -23 -25 -32 -14
-9 -25 -22 -25 -29 0 -7 -9 -24 -20 -37 -10 -14 -16 -28 -13 -32 3 -3 2 -6 -4
-6 -6 0 -18 -16 -27 -35 -9 -19 -21 -35 -27 -35 -6 0 -7 -4 -4 -10 3 -5 3 -10
-2 -10 -4 0 -18 -22 -31 -50 -13 -27 -27 -50 -32 -50 -9 0 -34 -58 -33 -77 0
-7 -2 -11 -6 -10 -3 1 -7 -1 -8 -6 -2 -4 -12 -17 -23 -29 -11 -12 -20 -30 -20
-40 0 -10 -9 -27 -20 -38 -11 -11 -22 -31 -26 -45 -3 -14 -10 -25 -15 -25 -5
0 -9 -9 -9 -20 0 -10 -6 -23 -13 -27 -17 -11 -40 -80 -31 -94 5 -8 3 -9 -5 -5
-8 5 -14 0 -18 -13 -3 -12 -9 -21 -13 -21 -12 0 -41 -91 -33 -104 3 -6 3 -8
-2 -4 -8 8 -36 -16 -34 -29 1 -4 -5 -25 -14 -45 -10 -21 -17 -43 -17 -49 0 -7
-7 -17 -15 -23 -9 -6 -17 -23 -19 -36 -1 -14 -10 -39 -19 -57 -9 -18 -17 -39
-17 -48 0 -8 -4 -15 -9 -15 -9 0 -16 -19 -42 -112 -7 -27 -17 -48 -22 -48 -4
0 -5 -4 -2 -10 3 -5 2 -10 -2 -10 -5 0 -17 -30 -27 -67 -10 -38 -23 -74 -28
-81 -6 -7 -8 -15 -5 -18 3 -4 0 -13 -8 -21 -8 -8 -15 -24 -15 -35 0 -23 -21
-100 -30 -108 -11 -10 -31 -80 -25 -89 3 -5 1 -12 -4 -15 -5 -3 -12 -27 -16
-53 -4 -27 -12 -54 -17 -61 -6 -6 -11 -32 -12 -56 0 -24 -4 -42 -8 -40 -4 2
-12 -29 -19 -71 -7 -41 -17 -75 -22 -75 -5 0 -7 -11 -5 -25 3 -14 1 -25 -5
-25 -5 0 -7 -15 -4 -35 3 -20 2 -33 -2 -30 -5 2 -14 -37 -20 -87 -7 -51 -17
-95 -22 -99 -6 -3 -8 -25 -6 -47 2 -23 0 -43 -4 -44 -5 -2 -17 -78 -27 -170
-16 -150 -16 -168 -2 -169 8 0 667 -1 1463 -1 1224 0 1451 2 1463 13 7 8 16
38 18 67 4 44 33 166 54 222 3 8 6 20 7 25 0 6 4 18 8 28 14 36 20 52 22 62 0
6 7 24 14 40 7 17 13 38 14 48 1 9 5 17 9 17 4 0 7 3 7 8 -1 4 -1 9 1 12 1 3
4 16 6 29 2 14 11 32 19 41 8 9 12 20 8 23 -3 4 -1 7 6 7 7 0 9 5 5 11 -3 6 4
25 16 41 13 17 16 28 9 24 -8 -4 -5 0 5 8 11 9 16 16 11 16 -5 0 -4 5 3 12 7
7 12 20 12 30 0 10 5 18 12 18 6 0 9 3 5 6 -7 8 106 228 134 262 10 12 19 29
19 37 0 8 5 15 11 15 5 0 7 5 4 10 -3 6 -3 10 2 10 4 0 14 14 21 30 8 17 18
28 23 25 5 -4 6 1 3 9 -3 9 -1 16 5 16 6 0 11 4 11 10 0 9 11 25 45 64 6 6 11
18 13 26 6 23 23 40 35 33 6 -3 7 -1 3 5 -3 6 6 26 22 44 15 18 41 51 57 73
40 55 51 65 60 57 5 -4 5 -2 2 4 -4 7 9 26 28 43 19 17 35 34 35 39 0 15 37
52 44 44 4 -4 6 0 4 8 -1 8 3 14 10 12 6 -1 11 1 10 5 -4 12 158 174 165 166
4 -3 7 -1 7 6 0 14 44 53 57 51 4 -1 10 6 13 16 4 11 -5 28 -28 50 -19 19 -38
34 -42 34 -4 0 -13 11 -20 25 -7 13 -16 23 -20 22 -10 -3 -79 60 -73 67 4 3
-1 6 -10 6 -8 0 -25 12 -36 26 -12 15 -21 24 -21 20 0 -4 -11 3 -25 16 -13 13
-43 39 -66 58 -24 19 -67 58 -96 85 -29 28 -67 61 -84 75 -17 14 -53 45 -78
70 -26 25 -58 53 -72 63 -13 10 -17 15 -9 11 9 -4 12 -3 7 2 -5 5 -12 9 -16 9
-12 0 -61 43 -61 53 0 6 -9 13 -19 17 -11 3 -22 12 -25 20 -3 8 -10 15 -15 15
-5 0 -25 15 -44 33 -102 93 -118 107 -126 107 -6 0 -12 9 -16 19 -3 11 -12 21
-20 23 -13 3 -86 65 -174 148 -27 25 -70 63 -97 85 -27 22 -66 57 -86 78 -21
20 -40 37 -43 37 -7 0 -60 46 -107 93 -20 20 -42 37 -47 37 -5 0 -13 9 -16 21
-4 11 -10 18 -13 14 -3 -3 -20 8 -37 24 -71 71 -182 171 -192 173 -14 3 -31
23 -26 31 2 4 -3 7 -11 7 -8 0 -21 9 -29 20 -8 11 -16 17 -19 14 -4 -3 -9 4
-13 15 -3 12 -10 19 -15 16 -5 -3 -19 8 -31 25 -13 16 -31 32 -41 36 -10 3
-16 10 -13 15 4 5 -1 9 -10 9 -10 0 -13 5 -9 12 4 6 3 8 -3 5 -5 -3 -40 21
-77 53 -70 63 -82 70 -72 45z m614 -1326 c116 -23 225 -95 314 -206 27 -35 66
-156 71 -219 11 -156 -77 -330 -213 -421 -58 -40 -188 -100 -234 -109 -11 -2
-37 -7 -56 -11 -19 -4 -38 -6 -42 -5 -5 1 -8 -2 -8 -8 0 -11 56 -36 110 -50
19 -5 53 -14 75 -20 124 -35 260 -46 363 -30 83 14 196 52 257 88 26 15 56 32
67 38 42 24 157 143 238 247 58 75 90 107 104 107 57 -1 57 -1 -124 -402 -96
-210 -261 -574 -366 -808 -106 -233 -198 -426 -204 -428 -6 -2 -20 4 -32 14
-15 14 -18 27 -15 49 3 16 15 82 27 145 43 228 26 389 -56 553 -50 100 -82
143 -165 222 -61 58 -290 215 -313 215 -4 0 8 -28 27 -62 90 -167 122 -324 93
-450 -31 -135 -106 -247 -204 -304 -26 -15 -47 -26 -48 -23 0 2 -8 -1 -16 -8
-25 -21 -136 -42 -201 -38 -124 8 -222 51 -326 142 -102 89 -177 237 -289 568
-94 281 -180 482 -246 580 -56 82 -180 217 -256 278 l-35 28 40 -5 c111 -15
137 -17 230 -17 81 0 188 10 250 25 82 20 335 104 351 117 7 6 20 11 30 14 11
2 75 28 144 58 116 50 184 76 202 77 4 1 24 8 45 16 20 9 44 18 52 20 9 2 36
9 61 15 106 26 192 29 298 8z"/>
<path d="M6860 10223 c-828 -57 -1538 -381 -2096 -955 -794 -816 -1090 -1981
-783 -3075 279 -993 1037 -1796 2016 -2136 572 -199 1207 -228 1801 -81 1139
280 2036 1177 2316 2316 224 909 37 1874 -509 2624 -509 697 -1259 1151 -2110
1278 -195 29 -462 41 -635 29z m727 -622 c191 -41 519 -156 625 -221 18 -11
124 -95 235 -187 l203 -168 0 -261 0 -260 -467 -11 -467 -12 -325 206 c-179
113 -370 233 -423 267 -71 44 -98 67 -98 81 0 27 68 506 72 511 2 2 89 21 193
43 217 46 279 48 452 12z m-852 -16 l112 -35 -12 -87 c-7 -49 -23 -163 -36
-256 l-23 -167 -471 -280 -470 -279 -390 -9 c-214 -5 -392 -8 -394 -6 -3 3 1
73 7 157 l12 152 98 98 c309 313 680 540 1092 668 118 37 290 77 334 78 16 1
80 -15 141 -34z m1946 -507 c47 -37 92 -75 100 -85 17 -21 -170 122 -226 173
l-40 36 40 -28 c22 -15 79 -58 126 -96z m274 -1136 c154 -257 281 -473 283
-480 4 -14 -399 -957 -415 -972 -4 -4 -205 -10 -446 -13 l-437 -5 -29 41 c-16
23 -153 235 -305 470 l-276 429 162 411 c89 227 175 447 191 490 l31 77 95 1
c53 1 204 5 336 8 132 4 305 8 385 9 l145 1 280 -467z m-3011 46 c75 -222 149
-437 163 -478 l25 -75 -262 -460 c-145 -253 -266 -464 -271 -469 -8 -9 -729
43 -741 53 -4 4 -82 205 -174 446 -145 385 -165 443 -156 468 9 23 184 339
451 814 l46 83 75 1 c112 2 608 15 661 17 l46 2 137 -402z m3679 -550 c31
-130 32 -540 3 -743 -49 -336 -165 -667 -334 -952 -40 -67 -76 -124 -81 -127
-7 -5 -219 40 -228 48 -4 3 -83 689 -83 720 0 22 76 212 215 537 118 276 218
505 221 508 5 5 174 24 260 30 15 1 24 -6 27 -21z m-2843 -64 c261 -9 476 -17
476 -17 30 -35 604 -943 602 -951 -2 -6 -122 -205 -268 -442 l-265 -431 -119
-7 c-66 -3 -325 -6 -576 -6 l-457 0 -257 451 -258 450 277 485 277 484 47 0
c25 0 260 -7 521 -16z m-2161 -456 c95 -252 176 -483 181 -515 50 -296 120
-746 118 -748 -2 -1 -18 -7 -36 -13 l-33 -11 -40 62 c-81 126 -198 379 -254
548 -93 282 -129 505 -129 804 -1 171 9 344 19 333 1 -2 80 -209 174 -460z
m689 -1625 c185 -152 360 -296 389 -320 28 -23 56 -43 62 -43 9 0 310 -247
366 -301 29 -29 -149 46 -304 126 -206 108 -417 258 -585 415 -117 110 -326
354 -326 380 0 8 21 16 48 19 7 0 164 -123 350 -276z m3751 254 l93 -22 -68
-85 c-89 -113 -318 -340 -424 -422 -238 -183 -460 -307 -729 -404 -142 -52
-301 -96 -301 -85 0 5 80 85 178 178 156 150 217 199 527 425 193 140 406 296
475 346 69 51 132 92 140 91 8 0 57 -10 109 -22z m-1489 -333 c135 -119 263
-232 284 -252 l39 -35 -224 -222 -224 -222 -119 -12 c-144 -15 -437 -16 -566
-2 -52 6 -158 23 -235 38 l-140 27 -95 80 c-433 364 -460 388 -450 404 6 10
83 103 173 207 159 185 164 190 207 196 25 3 284 7 575 7 l530 2 245 -216z"/>
<path d="M802 7582 l-82 -3 3 -582 c3 -320 7 -609 11 -642 4 -33 12 -94 17
-135 6 -41 12 -100 15 -130 3 -30 7 -62 11 -70 3 -8 7 -24 8 -35 2 -11 8 -45
14 -75 6 -30 20 -102 31 -160 12 -58 25 -121 30 -140 5 -19 14 -63 21 -97 7
-35 16 -63 19 -63 4 0 5 -11 2 -25 -2 -15 0 -25 7 -25 6 0 11 -7 11 -15 0 -8
6 -15 13 -15 9 0 8 -3 -2 -9 -11 -7 -11 -13 0 -32 7 -13 13 -31 14 -39 3 -39
18 -100 25 -100 7 0 16 -27 25 -70 10 -50 29 -110 34 -110 4 0 15 -34 25 -75
10 -42 24 -82 32 -89 8 -8 14 -22 14 -30 0 -9 5 -16 11 -16 5 0 8 -4 5 -8 -7
-11 15 -82 25 -82 4 0 5 -9 2 -20 -3 -11 -1 -20 5 -20 6 0 20 -29 32 -65 12
-36 25 -65 30 -65 4 0 10 -10 13 -22 9 -42 32 -93 45 -101 6 -4 12 -14 12 -21
0 -21 42 -116 51 -116 5 0 9 -6 9 -12 0 -17 66 -147 85 -168 8 -9 12 -20 8
-23 -3 -4 2 -16 12 -27 10 -11 15 -20 11 -20 -4 0 1 -12 12 -27 11 -16 23 -38
26 -50 4 -13 12 -23 17 -23 6 0 7 -4 4 -10 -3 -5 -2 -10 2 -10 5 0 17 -20 28
-45 11 -25 24 -45 28 -45 5 0 6 -3 4 -7 -5 -11 30 -43 38 -35 3 4 3 -1 -1 -11
-3 -10 -1 -17 6 -17 6 0 8 -5 5 -10 -3 -5 -1 -10 5 -10 6 0 8 -4 5 -10 -3 -5
-2 -10 3 -10 6 0 17 -18 26 -40 9 -22 21 -40 28 -40 6 0 8 -3 5 -6 -4 -4 2
-14 13 -24 10 -9 22 -28 25 -43 4 -15 11 -27 17 -27 5 0 15 -15 23 -33 8 -19
25 -45 39 -58 14 -13 26 -29 26 -36 0 -6 9 -19 21 -27 12 -8 18 -19 15 -24 -3
-6 1 -12 9 -15 7 -3 22 -21 31 -39 9 -18 25 -39 35 -46 11 -7 19 -18 19 -23 0
-5 11 -21 25 -35 14 -14 25 -28 25 -32 0 -15 47 -61 55 -54 5 4 5 2 2 -4 -4
-7 0 -17 8 -24 8 -7 15 -18 15 -24 0 -6 12 -22 25 -35 14 -13 25 -27 25 -32 0
-5 7 -9 16 -9 8 0 12 -4 9 -10 -3 -5 -1 -10 5 -10 6 0 13 -8 17 -17 3 -10 30
-41 59 -69 30 -29 54 -56 54 -61 0 -13 44 -53 58 -53 7 0 11 -3 10 -7 -5 -13
54 -83 63 -77 5 3 9 -2 9 -10 0 -9 5 -16 10 -16 6 0 14 -8 17 -17 8 -21 64
-69 76 -65 5 1 6 -1 3 -6 -6 -9 35 -48 46 -44 5 1 7 -2 5 -7 -3 -13 119 -138
143 -146 11 -3 20 -13 20 -21 0 -8 5 -14 11 -14 6 0 20 -11 31 -25 11 -14 25
-25 33 -25 7 0 20 -12 30 -26 10 -15 22 -23 31 -20 8 3 13 2 10 -3 -3 -4 4
-18 17 -29 12 -12 36 -35 54 -52 17 -16 34 -30 38 -30 10 0 112 -80 145 -114
14 -14 32 -26 41 -26 8 0 26 -12 40 -27 14 -16 38 -36 54 -45 53 -31 70 -43
78 -55 4 -7 15 -13 22 -13 8 0 15 -4 15 -9 0 -6 18 -20 40 -32 22 -13 40 -26
40 -30 0 -4 19 -17 41 -28 23 -12 48 -29 56 -37 9 -8 22 -13 30 -10 8 3 11 1
8 -4 -3 -6 -2 -10 3 -10 5 0 20 -11 33 -23 13 -13 39 -29 58 -35 18 -7 45 -23
59 -37 13 -14 31 -25 39 -25 7 0 32 -12 56 -27 57 -37 114 -63 122 -55 3 4 3
-1 -1 -11 -4 -13 -1 -17 15 -19 12 0 26 -1 33 -2 7 -1 25 -14 41 -29 17 -17
37 -27 47 -24 9 2 22 -4 28 -13 6 -10 25 -21 42 -25 16 -4 30 -10 30 -13 0 -8
62 -37 98 -47 12 -4 22 -10 22 -15 0 -5 15 -12 33 -15 17 -4 50 -17 72 -29 22
-11 47 -21 55 -21 8 -1 27 -9 42 -19 16 -10 35 -16 43 -12 9 3 13 2 10 -4 -3
-6 3 -10 15 -10 12 0 19 -4 15 -9 -3 -5 28 -20 69 -32 41 -12 72 -27 69 -32
-3 -5 6 -7 19 -5 14 1 31 -2 39 -8 8 -6 34 -16 59 -23 25 -7 47 -16 50 -20 3
-4 42 -18 88 -31 45 -12 82 -28 82 -34 0 -6 5 -4 10 4 8 12 10 12 10 1 0 -8 3
-11 7 -8 3 4 11 3 17 -2 6 -4 44 -16 84 -26 39 -9 72 -22 72 -27 0 -6 16 -8
35 -6 19 2 36 0 37 -4 3 -7 64 -23 136 -35 17 -3 32 -10 32 -15 0 -7 14 -8 35
-5 24 4 33 2 29 -5 -5 -7 2 -9 20 -6 14 3 26 2 26 -2 0 -6 103 -27 165 -34 6
0 12 -4 15 -8 3 -4 26 -10 50 -13 168 -21 286 -40 290 -45 3 -4 39 -10 80 -13
432 -36 484 -38 849 -34 207 2 408 6 446 10 39 3 136 11 218 18 81 7 147 16
147 19 0 4 24 10 53 13 28 4 68 9 87 13 38 6 78 11 123 13 16 0 25 5 22 11 -3
6 1 7 9 4 9 -3 16 -1 16 5 0 6 5 11 11 11 5 0 7 -4 4 -10 -3 -5 3 -10 14 -10
12 0 21 4 21 8 0 4 30 13 68 20 37 7 74 14 82 16 8 2 39 7 68 11 28 4 52 11
52 15 0 8 77 26 92 22 4 -1 26 5 49 13 23 8 52 15 65 15 13 0 24 4 24 9 0 5
45 19 100 31 55 13 100 27 100 32 0 4 9 8 20 8 11 0 20 5 20 11 0 5 4 8 9 5
13 -8 121 22 138 39 8 8 23 15 34 15 10 0 19 5 19 11 0 5 5 7 11 4 14 -9 61 3
55 14 -3 4 6 6 19 3 14 -2 25 0 25 6 0 6 25 18 55 27 30 10 55 21 55 26 0 5 7
6 15 2 9 -3 23 1 33 10 9 8 37 22 62 30 25 8 59 22 75 30 17 9 50 24 75 33 25
10 47 21 50 24 11 12 243 120 259 120 5 0 13 9 16 21 4 11 9 18 12 16 8 -9 67
15 86 34 10 11 24 19 32 19 8 0 15 5 15 10 0 6 7 10 15 10 8 0 15 4 15 10 0 5
7 7 15 4 8 -4 15 -2 15 3 0 5 22 20 50 33 27 13 50 27 50 32 0 5 11 13 25 18
14 5 25 14 25 20 0 6 5 8 11 5 6 -4 20 2 32 13 12 11 40 28 61 38 22 10 54 32
72 50 17 18 34 30 37 27 3 -3 16 4 28 16 13 12 29 21 36 21 7 0 18 9 25 20 7
11 17 20 21 20 15 0 57 37 49 44 -3 4 2 4 11 0 13 -4 23 0 33 15 8 11 21 21
28 21 7 0 32 19 56 43 24 23 46 42 49 42 13 0 50 32 44 38 -3 4 1 7 10 7 8 0
32 16 53 35 20 19 41 35 46 35 13 0 73 63 70 73 -1 5 2 6 7 2 6 -3 32 15 58
40 26 26 60 54 75 63 16 9 26 22 24 29 -3 7 -1 13 5 13 16 0 59 36 52 44 -3 3
-1 6 6 6 7 0 18 6 26 12 87 82 105 101 100 109 -4 5 0 9 7 9 16 0 123 103 119
115 -1 4 11 14 28 23 17 8 31 19 31 25 0 5 17 27 38 48 20 22 37 45 37 51 0 7
6 14 13 14 6 1 16 2 21 3 5 0 13 11 16 24 4 12 18 32 32 44 14 12 22 26 19 31
-3 6 2 9 11 8 9 0 22 9 29 22 6 13 21 30 33 38 11 8 21 24 21 35 0 10 5 19 10
19 19 0 50 39 44 55 -4 9 -3 15 2 14 21 -5 42 13 37 32 -3 11 -2 19 3 17 12
-4 49 23 57 42 15 32 71 110 105 147 12 13 20 28 17 33 -3 4 2 10 10 14 8 3
15 11 15 19 0 7 16 30 35 51 19 21 37 46 40 57 4 10 10 19 15 19 5 0 19 21 32
47 13 26 31 55 41 65 9 10 17 22 17 26 0 5 8 17 18 28 19 22 62 105 62 123 0
6 6 11 13 11 7 0 23 25 36 55 13 30 27 55 30 55 4 0 15 18 25 40 10 22 21 40
26 40 5 0 12 20 16 45 3 25 10 42 15 39 5 -3 9 -1 9 5 0 5 6 16 13 23 18 20
47 74 47 90 0 7 9 21 20 31 11 9 20 23 20 31 0 7 11 38 24 67 12 30 21 60 19
67 -3 7 1 11 9 10 8 -2 13 6 13 22 0 14 11 35 23 47 13 12 21 27 17 32 -3 6
-2 11 3 11 4 0 16 27 26 60 10 33 22 60 28 60 5 0 6 4 3 10 -3 5 -2 10 3 10
10 0 32 67 32 99 0 13 6 21 16 21 12 0 15 7 12 25 -3 14 -2 25 3 25 7 0 25 52
35 104 2 11 7 22 12 25 4 3 21 53 37 111 16 58 32 107 36 110 5 4 28 94 45
174 2 11 8 22 12 25 5 3 14 31 20 61 5 30 16 84 22 120 7 36 16 67 20 70 8 6
50 244 50 283 0 15 4 27 9 27 5 0 12 26 15 58 3 31 8 80 11 107 3 28 10 77 15
110 5 33 10 79 10 102 0 24 5 43 13 45 9 4 13 136 15 606 l4 602 -94 1 c-566
4 -2875 3 -2872 -2 2 -4 6 -28 9 -55 3 -27 8 -60 11 -74 25 -130 25 -632 -1
-800 -9 -55 -16 -102 -20 -135 -3 -28 -7 -50 -20 -115 -2 -13 -7 -42 -11 -64
-3 -22 -10 -48 -15 -58 -5 -10 -7 -18 -3 -18 3 0 0 -8 -7 -17 -10 -12 -10 -15
-1 -9 9 5 10 2 3 -16 -19 -47 -24 -63 -23 -70 1 -4 -3 -20 -10 -35 -6 -15 -12
-32 -12 -38 -3 -29 -50 -165 -57 -165 -4 0 -6 -8 -5 -17 2 -10 -5 -33 -15 -52
-10 -19 -16 -38 -13 -43 3 -4 1 -8 -4 -8 -5 0 -9 -6 -9 -13 0 -8 -9 -34 -20
-58 -85 -180 -107 -224 -114 -227 -5 -2 -9 -12 -9 -23 0 -10 -5 -19 -12 -19
-6 0 -9 -3 -5 -6 6 -7 -30 -82 -50 -102 -7 -7 -13 -20 -13 -28 0 -8 -4 -12
-10 -9 -5 3 -10 -2 -10 -13 0 -10 -9 -28 -20 -40 -11 -12 -20 -26 -20 -31 0
-6 -15 -31 -32 -57 -18 -25 -40 -56 -48 -69 -36 -55 -84 -115 -92 -115 -4 0
-8 -5 -8 -10 0 -17 -63 -99 -80 -105 -8 -2 -21 -14 -28 -26 -11 -17 -11 -20 0
-13 7 4 -2 -7 -20 -26 -19 -18 -40 -44 -49 -56 -8 -13 -19 -21 -24 -18 -5 3
-9 0 -9 -6 0 -15 -82 -100 -92 -94 -4 3 -8 0 -8 -7 0 -14 -86 -99 -100 -99 -6
0 -10 -6 -10 -13 0 -8 -11 -20 -25 -27 -14 -7 -25 -17 -25 -22 0 -4 -4 -8 -9
-8 -5 0 -26 -17 -48 -37 -21 -21 -60 -54 -86 -73 -27 -19 -60 -45 -74 -57 -14
-13 -32 -23 -39 -23 -8 0 -14 -4 -14 -10 0 -5 -5 -10 -10 -10 -6 0 -21 -10
-33 -21 -23 -23 -153 -109 -163 -109 -4 0 -40 -20 -81 -45 -40 -25 -77 -45
-82 -45 -5 0 -14 -6 -21 -14 -6 -8 -18 -12 -26 -9 -8 3 -14 0 -14 -7 0 -6 -4
-8 -10 -5 -5 3 -10 1 -10 -4 0 -6 -6 -11 -14 -11 -7 0 -25 -9 -39 -20 -15 -12
-29 -21 -32 -21 -4 0 -40 -14 -125 -52 -14 -6 -30 -11 -36 -12 -6 0 -26 -8
-45 -17 -58 -27 -82 -36 -136 -49 -29 -7 -53 -16 -53 -20 0 -6 -70 -21 -86
-18 -4 0 -10 -4 -13 -10 -4 -5 -20 -13 -36 -16 -41 -8 -60 -13 -60 -15 0 -2
-34 -8 -75 -15 -14 -2 -26 -4 -27 -5 -2 -2 -7 -4 -13 -5 -5 -1 -11 -3 -12 -5
-2 -1 -12 -3 -23 -4 -11 -2 -36 -6 -55 -11 -19 -5 -44 -9 -55 -11 -11 -2 -33
-5 -48 -8 -68 -11 -163 -25 -177 -25 -8 0 -44 -2 -80 -6 -121 -10 -424 -13
-535 -4 -60 5 -117 9 -125 10 -8 1 -46 5 -85 11 -38 5 -95 12 -125 14 -30 3
-63 10 -73 16 -10 5 -31 10 -48 10 -16 1 -29 4 -29 8 0 4 -15 8 -32 8 -45 3
-66 7 -74 15 -4 4 -17 7 -29 7 -12 0 -44 7 -71 16 -27 9 -56 18 -64 20 -8 3
-16 5 -18 5 -1 -1 -19 6 -40 15 -20 9 -47 18 -58 20 -12 2 -39 11 -60 20 -22
9 -40 16 -41 15 -2 0 -28 10 -59 24 -31 14 -63 25 -71 25 -8 0 -28 9 -44 21
-16 11 -29 18 -29 14 0 -3 -12 1 -27 9 -16 8 -75 38 -133 66 -58 29 -113 59
-123 68 -10 9 -26 17 -35 18 -9 2 -18 8 -20 13 -2 6 -10 11 -18 11 -8 0 -17 7
-21 16 -3 8 -12 13 -19 10 -8 -3 -14 -2 -14 2 0 4 -20 18 -45 32 -25 14 -45
28 -45 32 0 5 -6 8 -13 8 -7 0 -31 15 -53 33 -21 17 -61 48 -89 67 -77 53
-164 127 -158 134 4 3 1 6 -5 6 -7 0 -31 18 -55 39 -99 91 -131 123 -119 116
6 -3 12 -4 12 0 0 3 -12 10 -26 15 -14 6 -22 14 -19 20 3 5 2 10 -2 10 -5 0
-18 7 -29 16 -10 8 -13 12 -5 8 9 -5 12 -3 7 4 -4 7 -13 12 -21 12 -7 0 -17 9
-20 20 -4 11 -10 18 -14 15 -5 -2 -21 13 -36 35 -15 21 -49 62 -76 90 -27 28
-49 56 -49 61 0 6 -14 22 -30 36 -17 13 -28 29 -24 34 3 5 -2 12 -10 15 -9 3
-13 10 -10 15 3 5 -1 9 -9 9 -12 0 -32 30 -35 53 -1 4 -13 18 -26 32 -13 13
-34 42 -47 65 -12 22 -26 40 -31 40 -4 0 -8 8 -8 18 -1 9 -14 33 -30 52 -17
19 -30 39 -30 46 0 6 -10 24 -22 40 -13 15 -16 24 -8 19 8 -4 6 3 -6 16 -11
13 -28 40 -38 59 -9 19 -25 49 -35 65 -10 17 -16 36 -13 44 3 9 1 12 -6 7 -7
-4 -13 -2 -13 3 -1 6 -2 14 -4 19 -14 50 -18 62 -25 62 -5 0 -12 15 -15 33 -4
17 -10 37 -14 42 -3 6 -6 12 -7 15 0 3 -13 31 -27 63 -15 32 -27 63 -27 70 0
7 -4 17 -9 23 -6 5 -11 20 -13 34 -2 14 -7 30 -10 36 -4 6 -9 21 -11 35 -3 13
-12 41 -20 62 -9 20 -13 37 -10 37 3 0 1 6 -4 13 -10 11 -24 68 -28 109 -1 9
-5 24 -9 34 -6 16 -42 188 -50 239 -10 63 -23 174 -33 280 -14 144 -7 521 12
664 2 18 5 52 6 75 1 22 7 47 12 54 5 6 6 12 1 12 -54 3 -2791 4 -2852 2z"/>
</g>
</svg>
