<svg xmlns="http://www.w3.org/2000/svg" xmlns:xlink="http://www.w3.org/1999/xlink" width="500" zoomAndPan="magnify" viewBox="0 0 375 374.999991" height="500" preserveAspectRatio="xMidYMid meet" version="1.0"><path fill="#000000" d="M 165.535156 3.503906 C 160.769531 5.410156 144.566406 9.222656 130.269531 12.082031 C 97.863281 19.707031 40.675781 68.316406 21.613281 104.535156 C 3.503906 140.753906 4.457031 222.722656 23.519531 256.082031 C 62.597656 321.847656 161.722656 337.097656 241.785156 289.441406 C 279.910156 267.519531 285.628906 266.566406 282.769531 280.863281 C 275.144531 320.894531 149.332031 352.347656 85.472656 328.519531 C 53.066406 317.082031 68.316406 338.050781 106.441406 358.066406 C 145.519531 378.082031 232.253906 378.082031 271.332031 358.066406 C 344.722656 319.941406 389.519531 231.300781 370.457031 162.675781 C 350.441406 93.097656 312.316406 65.457031 231.300781 65.457031 C 184.597656 65.457031 165.535156 70.222656 137.894531 89.285156 C 117.878906 102.628906 97.863281 111.207031 93.097656 107.394531 C 79.753906 99.769531 91.191406 86.425781 130.269531 66.410156 C 183.644531 39.722656 227.488281 34.957031 278.957031 50.207031 C 318.988281 62.597656 322.800781 62.597656 312.316406 50.207031 C 288.488281 20.660156 196.988281 -7.933594 165.535156 3.503906 Z M 165.535156 3.503906 " fill-opacity="1" fill-rule="nonzero"/></svg>